<svg width="400" height="250" viewBox="0 0 400 250" fill="none" xmlns="http://www.w3.org/2000/svg">
<g clip-path="url(#clip0_602_115)">
<path d="M20.516 106.061L16.0283 115.771L23.3347 118.929L23.2824 123.989L0.00234985 127.236V141.546C0.00234985 141.546 17.031 141.31 27.6766 131.067C36.6195 122.466 31.826 115.285 24.3273 116.105C24.1223 116.122 24.085 115.933 24.3587 115.865C28.7231 114.9 36.9013 115.057 39.7011 124.078C42.3718 132.679 35.9134 141.546 35.9134 141.546H47.05V94.1748L20.516 106.061Z" fill="#DC0533"/>
<path d="M0.000587463 141.546H0.0129819C0.531189 141.537 17.1981 141.151 27.6771 131.068C36.6201 122.466 31.8267 115.286 24.3279 116.108C24.1229 116.123 24.0856 115.936 24.3569 115.866C28.722 114.9 36.9001 115.058 39.7 124.08C42.37 132.679 35.914 141.546 35.914 141.546H47.0507V94.1758L20.5148 106.061L16.0265 115.772L23.3335 118.931L23.283 123.99L0.000587463 127.237V141.546Z" fill="#DC0533"/>
<path d="M19.3711 104.651C10.4348 113.255 15.2257 120.434 22.7228 119.611C22.9295 119.599 22.9633 119.784 22.6913 119.855C18.3286 120.821 10.1487 120.659 7.34904 111.641C4.67848 103.042 11.1372 94.1758 11.1372 94.1758H0V130.512C7.18378 131.712 13.5963 131.295 21.2562 127.634C28.9157 123.973 29.1289 117.63 23.3453 117.63C17.9194 117.63 16.1456 113.901 21.9516 109.285C29.5346 103.263 47.05 105.712 47.05 105.712V94.1758C47.05 94.1758 30.0215 94.4114 19.3711 104.651Z" fill="#DC0533"/>
<path d="M0.000587463 94.1758V130.512C7.182 131.714 13.5963 131.297 21.2562 127.634C28.9187 123.971 29.1271 117.63 23.3459 117.63C17.9194 117.63 16.1456 113.899 21.9522 109.285C29.5346 103.263 47.0507 105.712 47.0507 105.712V94.1758C47.0507 94.1758 30.0215 94.4091 19.3717 104.651C10.433 113.255 15.2263 120.434 22.721 119.611C22.9301 119.596 22.9615 119.784 22.6919 119.855C18.3292 120.821 10.1493 120.659 7.34904 111.641C4.67907 103.042 11.1354 94.1758 11.1354 94.1758H0.000587463Z" fill="#DC0533"/>
<path d="M62.2474 118.615C62.2474 110.007 68.95 103.041 77.6533 103.041C82.1093 103.041 85.7389 104.682 88.3211 107.158L84.4793 112.763C82.6633 111.183 80.6348 110.224 78.083 110.224C73.6874 110.224 69.9952 113.784 69.9952 118.615C69.9952 123.385 73.6874 126.942 78.083 126.942C80.7267 126.942 82.7548 125.922 84.5081 124.466L88.3526 130.042C85.7389 132.455 82.02 134.158 77.7137 134.158C68.7978 134.158 62.2474 127.098 62.2474 118.615Z" fill="black"/>
<path d="M121.784 133.261H113.974V115.177L100.506 133.261H93.3722V103.754H101.183V120.689L114.126 103.754H121.784V133.261Z" fill="black"/>
<path d="M127.432 133.261V103.754H135.274V114.497H147.973V103.754H155.781V133.261H147.973V121.557H135.274V133.261H127.432Z" fill="black"/>
<path d="M183.749 118.554C183.749 113.815 180.242 110.411 175.815 110.411C171.388 110.411 168.034 113.815 168.034 118.554C168.034 123.29 171.388 126.635 175.815 126.635C180.213 126.635 183.749 123.29 183.749 118.554ZM184.394 103.753H191.097V133.261H184.363L183.901 129.793C181.718 132.333 178.673 134.003 174.802 134.003C166.837 134.003 160.287 127.161 160.287 118.522C160.287 109.946 166.868 103.04 174.802 103.04C178.673 103.04 181.718 104.713 183.901 107.253L184.394 103.753Z" fill="black"/>
<path d="M219.861 118.554C219.861 113.815 216.51 110.411 212.08 110.411C207.652 110.411 204.146 113.815 204.146 118.554C204.146 123.29 207.683 126.635 212.08 126.635C216.51 126.635 219.861 123.29 219.861 118.554ZM227.608 118.522C227.608 127.161 221.058 134.003 213.097 134.003C209.558 134.003 206.731 132.611 204.61 130.443V144.252H196.8V103.753H203.377L203.902 107.377C206.085 104.774 209.16 103.04 213.097 103.04C221.029 103.04 227.608 109.946 227.608 118.522Z" fill="black"/>
<path d="M254.453 118.554C254.453 113.815 250.946 110.411 246.519 110.411C242.092 110.411 238.74 113.815 238.74 118.554C238.74 123.29 242.092 126.635 246.519 126.635C250.917 126.635 254.453 123.29 254.453 118.554ZM255.098 103.753H261.803V133.261H255.067L254.607 129.793C252.422 132.333 249.38 134.003 245.506 134.003C237.541 134.003 230.993 127.161 230.993 118.522C230.993 109.946 237.572 103.04 245.506 103.04C249.38 103.04 252.422 104.713 254.607 107.253L255.098 103.753Z" fill="black"/>
<path d="M301.294 118.769C301.294 112.638 296.559 107.901 290.562 107.901C284.505 107.901 279.741 112.638 279.741 118.769C279.741 124.932 284.505 129.605 290.562 129.605C296.559 129.605 301.294 124.932 301.294 118.769ZM306.03 118.8C306.03 127.346 299.294 134.095 290.502 134.095C281.707 134.095 275.036 127.316 275.036 118.8V118.769V108.335C275.036 96.6328 280.539 90.872 288.809 89.8515C294.743 89.0451 296.927 88.4881 299.787 87L301.016 90.7788C297.667 92.6367 294.405 93.1944 289.271 93.9376C283.46 94.8041 279.524 98.7661 279.524 108.489V109.606C281.891 105.611 286.013 103.443 290.654 103.443C299.294 103.443 306.03 110.223 306.03 118.8Z" fill="black"/>
<path d="M332.957 118.739C332.957 112.609 329.205 108.056 323.58 108.056C317.922 108.056 314.232 112.609 314.232 118.739C314.232 124.902 317.922 129.36 323.549 129.36C329.205 129.36 332.957 124.902 332.957 118.739ZM332.587 104.124H337.385V133.261H332.74V128.832C330.619 131.96 327.36 133.972 323.118 133.972C315.245 133.972 309.526 127.285 309.526 118.707C309.526 110.192 315.245 103.442 323.085 103.442C327.268 103.442 330.467 105.363 332.587 108.337V104.124Z" fill="black"/>
<path d="M343.019 133.262V104.122H347.785V116.201H364.481V104.122H369.248V133.262H364.481V120.534H347.785V133.262H343.019Z" fill="black"/>
<path d="M374.244 133.262V104.122H378.981V116.136H384.73L392.693 104.122H398.23L388.511 118.182L399.707 133.262H394.2L384.793 120.753H378.981V133.262H374.244Z" fill="black"/>
<path d="M197.202 162.276H198.681V157.906H204.578V162.276H206.067V152.391H204.578V156.56H198.681V152.391H197.202V162.276Z" fill="black"/>
<path d="M213.565 162.534C216.38 162.534 218.622 160.253 218.622 157.371C218.622 154.471 216.38 152.181 213.574 152.181C210.76 152.181 208.527 154.471 208.527 157.371C208.527 160.253 210.76 162.534 213.565 162.534ZM210.006 157.362C210.006 155.234 211.599 153.593 213.584 153.593C215.55 153.593 217.143 155.234 217.143 157.362C217.143 159.499 215.55 161.121 213.584 161.121C211.599 161.121 210.006 159.499 210.006 157.362Z" fill="black"/>
<path d="M221.076 162.277H225.904C227.584 162.277 229.12 161.322 229.12 159.49C229.12 158.288 228.261 157.286 227.145 157.019C227.946 156.732 228.586 155.883 228.586 154.977C228.586 153.402 227.374 152.381 225.465 152.381H221.076V162.277ZM222.574 161.007V157.696H225.713C226.782 157.696 227.641 158.364 227.641 159.347C227.641 160.397 226.773 161.007 225.828 161.007H222.574ZM222.574 156.57V153.641H225.437C226.458 153.641 227.126 154.261 227.126 155.101C227.126 155.931 226.343 156.57 225.418 156.57H222.574Z" fill="black"/>
<path d="M235.948 162.534C238.763 162.534 241.005 160.253 241.005 157.371C241.005 154.471 238.763 152.181 235.957 152.181C233.143 152.181 230.91 154.471 230.91 157.371C230.91 160.253 233.143 162.534 235.948 162.534ZM232.389 157.362C232.389 155.234 233.982 153.593 235.967 153.593C237.933 153.593 239.526 155.234 239.526 157.362C239.526 159.499 237.933 161.121 235.967 161.121C233.982 161.121 232.389 159.499 232.389 157.362Z" fill="black"/>
<path d="M247.61 162.524C249.117 162.524 250.358 161.961 251.293 161.083L250.51 159.995C249.814 160.683 248.831 161.131 247.686 161.131C245.901 161.131 244.48 159.824 244.251 157.877H251.837C251.865 157.677 251.875 157.505 251.875 157.333C251.875 154.366 250.11 152.181 247.342 152.181C244.699 152.181 242.781 154.48 242.781 157.371C242.781 160.234 244.861 162.524 247.61 162.524ZM244.279 156.532C244.566 154.757 245.787 153.574 247.39 153.574C248.974 153.574 250.1 154.738 250.367 156.532H244.279Z" fill="black"/>
<path d="M267.818 162.276V152.391H266.377L260.49 159.833V152.391H259.02V162.276H260.394L266.33 154.661V162.276H267.818Z" fill="black"/>
<path d="M269.774 162.276H271.263L272.14 154.623L275.194 162.276H276.387L279.44 154.623L280.309 162.276H281.797L280.604 152.391H278.887L275.786 160.215L272.665 152.391H270.957L269.774 162.276Z" fill="black"/>
<path d="M291.042 162.276V152.391H286.776C284.753 152.391 283.313 153.717 283.313 155.558C283.313 157.057 284.162 157.934 285.202 158.383L283.074 162.276H284.753L286.595 158.745C286.786 158.765 286.986 158.774 287.177 158.774H289.553V162.276H291.042ZM284.753 155.597C284.753 154.49 285.574 153.66 286.814 153.66H289.553V157.572H286.92C285.574 157.572 284.753 156.675 284.753 155.597Z" fill="black"/>
<path d="M305.145 162.495C306.948 162.495 308.503 161.79 309.687 160.778L308.809 159.585C307.721 160.463 306.547 160.978 305.145 160.978C302.234 160.978 299.839 158.631 299.839 155.578C299.839 152.515 302.234 150.158 305.145 150.158C306.547 150.158 307.826 150.702 308.79 151.503L309.687 150.33C308.503 149.308 306.948 148.65 305.145 148.65C301.29 148.65 298.246 151.684 298.246 155.568C298.246 159.442 301.29 162.495 305.145 162.495Z" fill="black"/>
<path d="M312.246 162.276H313.83V155.959L316.644 155.95L321.015 162.276H322.818L317.837 155.215L322.561 148.87H320.748L316.644 154.519L313.83 154.528V148.87H312.246V162.276Z" fill="black"/>
<path d="M324.993 162.276H330.041C332.627 162.276 334.163 160.74 334.163 158.402C334.163 156.103 332.541 154.633 330.051 154.633H326.482V150.301H332.751V148.87H324.993V162.276ZM326.482 160.883V155.873H330.031C331.51 155.873 332.665 156.799 332.665 158.402C332.665 160.005 331.72 160.883 330.022 160.883H326.482Z" fill="black"/>
<path d="M336.079 157.934H342.071V156.542H336.079V157.934Z" fill="black"/>
<path d="M344.601 154.213V157.372C344.601 160.244 346.872 162.534 349.849 162.534C352.845 162.534 355.126 160.253 355.126 157.372C355.126 154.48 352.845 152.181 349.887 152.181C348.255 152.181 346.814 152.973 346.023 154.395V154.232C346.023 151.169 347.483 149.967 349.314 149.729C350.927 149.519 351.996 149.337 353.16 148.736L352.759 147.543C351.776 148.039 351.032 148.211 349.086 148.45C346.576 148.755 344.601 150.473 344.601 154.213ZM346.07 157.362C346.07 155.215 347.75 153.565 349.868 153.565C351.977 153.565 353.647 155.215 353.647 157.362C353.647 159.519 351.977 161.15 349.868 161.15C347.75 161.15 346.07 159.519 346.07 157.362Z" fill="black"/>
<path d="M361.56 162.505C363.068 162.505 364.203 161.77 364.938 160.683V162.276H366.389V157.61H366.398V152.391H364.909V153.955C364.184 152.896 363.058 152.181 361.56 152.181C358.869 152.181 356.913 154.461 356.913 157.343C356.913 160.234 358.86 162.505 361.56 162.505ZM358.392 157.353C358.392 155.224 359.69 153.612 361.665 153.612C363.65 153.612 365.005 155.224 365.005 157.353C365.005 159.49 363.65 161.074 361.656 161.074C359.68 161.074 358.392 159.49 358.392 157.353Z" fill="black"/>
<path d="M369.537 162.276H371.015V157.906H376.911V162.276H378.4V152.391H376.911V156.56H371.015V152.391H369.537V162.276Z" fill="black"/>
<path d="M381.537 162.276H383.019V157.944H385.096L388.389 162.276H390.119L386.244 157.161L389.622 152.391H387.874L385.07 156.532H383.019V152.391H381.537V162.276Z" fill="black"/>
<path d="M395.163 162.505C396.67 162.505 397.804 161.77 398.541 160.683V162.276H399.989V157.61H400V152.391H398.511V153.955C397.785 152.896 396.659 152.181 395.163 152.181C392.47 152.181 390.515 154.461 390.515 157.343C390.515 160.234 392.463 162.505 395.163 162.505ZM391.993 157.353C391.993 155.224 393.293 153.612 395.267 153.612C397.252 153.612 398.607 155.224 398.607 157.353C398.607 159.49 397.252 161.074 395.259 161.074C393.281 161.074 391.993 159.49 391.993 157.353Z" fill="black"/>
</g>
<defs>
<clipPath id="clip0_602_115">
<rect width="400" height="75.5556" fill="white" transform="translate(0 87)"/>
</clipPath>
</defs>
</svg>
